<svg id="hd_logo" data-name="hd_logo" xmlns="http://www.w3.org/2000/svg" viewBox="0 0 262.24 85"><defs><style>.cls-1{fill:#433f3f;}.cls-2{fill:#fff;}.cls-3{fill:#de580d;}.cls-4{fill:#bb1b21;}.cls-5{fill:#fff000;}.cls-6{fill:#fd0;}.cls-7{fill:#fcce00;}.cls-8{fill:#f7b200;}.cls-9{fill:#f08c00;}</style></defs><title>hd_logo</title><g id="logo"><polygon class="cls-1" points="115.47 65.46 109.95 65.46 109.95 61.03 108.63 61.03 108.63 71.22 109.95 71.22 109.95 66.73 115.47 66.73 115.47 71.22 116.79 71.22 116.79 61.03 115.47 61.03 115.47 65.46"/><path class="cls-1" d="M138.69,77.05a5.15,5.15,0,0,0-5.14,5.26v0a5.06,5.06,0,0,0,5.11,5.23,5.15,5.15,0,0,0,5.14-5.29A5.05,5.05,0,0,0,138.69,77.05Zm3.76,5.26v0a3.78,3.78,0,0,1-3.76,4,3.86,3.86,0,0,1-3.78-4,3.78,3.78,0,0,1,3.75-4A3.86,3.86,0,0,1,142.45,82.31Z" transform="translate(-13.58 -16.19)"/><polygon class="cls-1" points="132.72 62.3 136.06 62.3 136.06 71.22 137.39 71.22 137.39 62.3 140.73 62.3 140.73 61.03 132.72 61.03 132.72 62.3"/><polygon class="cls-1" points="152.92 65.94 149.5 61.03 147.85 61.03 152.24 67.22 152.24 71.22 153.57 71.22 153.57 67.21 157.96 61.03 156.36 61.03 152.92 65.94"/><path class="cls-1" d="M178.59,77.05a5.15,5.15,0,0,0-5.14,5.26v0a5.06,5.06,0,0,0,5.11,5.23,5.15,5.15,0,0,0,5.14-5.29A5.06,5.06,0,0,0,178.59,77.05Zm3.76,5.26v0a3.78,3.78,0,0,1-3.76,4,3.86,3.86,0,0,1-3.79-4,3.79,3.79,0,0,1,3.76-4A3.86,3.86,0,0,1,182.35,82.31Z" transform="translate(-13.58 -16.19)"/><path class="cls-1" d="M191.15,83.1h3.21v2.29a4.65,4.65,0,0,1-2.75.94,3.72,3.72,0,0,1-3.8-4,3.77,3.77,0,0,1,3.65-4,4,4,0,0,1,2.88,1.07l.23.2.87-1-.24-.2a5.33,5.33,0,0,0-3.7-1.33,5.11,5.11,0,0,0-5,5.26v0a5,5,0,0,0,5.12,5.23,6.06,6.06,0,0,0,4-1.51l.1-.09V81.83h-4.5Z" transform="translate(-13.58 -16.19)"/><path class="cls-1" d="M203.81,77.15h-1.07L198,87.41h1.42l1.22-2.68h5.25l1.22,2.68h1.46L203.9,77.32Zm-2.6,6.32,2-4.5,2,4.5Z" transform="translate(-13.58 -16.19)"/><path class="cls-1" d="M220.29,81.66c-2.36-.49-2.55-1.1-2.55-1.83s.86-1.5,2-1.5a3.83,3.83,0,0,1,2.66,1l.24.21.85-1-.24-.19a5.12,5.12,0,0,0-3.48-1.23c-1.93,0-3.39,1.21-3.39,2.85s1,2.5,3.48,3c2.28.46,2.46,1,2.46,1.76,0,.94-.87,1.6-2.11,1.6A4.36,4.36,0,0,1,217,85l-.23-.22-.87,1,.22.2a5.74,5.74,0,0,0,4.07,1.61c2.05,0,3.48-1.2,3.48-2.94C223.68,83,222.63,82.13,220.29,81.66Z" transform="translate(-13.58 -16.19)"/><polygon class="cls-1" points="212.52 62.3 215.86 62.3 215.86 71.22 217.18 71.22 217.18 62.3 220.52 62.3 220.52 61.03 212.52 61.03 212.52 62.3"/><path class="cls-1" d="M244,83.12c0,2-1,3.18-2.88,3.18s-2.93-1.18-2.93-3.25V77.22h-1.33v5.9c0,2.74,1.62,4.44,4.23,4.44s4.24-1.73,4.24-4.52V77.22H244Z" transform="translate(-13.58 -16.19)"/><path class="cls-1" d="M252.29,77.22H248.8V87.41h3.49a5.1,5.1,0,1,0,0-10.19Zm4,5.12a3.77,3.77,0,0,1-4,3.8h-2.17V78.49h2.17A3.78,3.78,0,0,1,256.34,82.34Z" transform="translate(-13.58 -16.19)"/><rect class="cls-1" x="247.39" y="61.03" width="1.32" height="10.19"/><path class="cls-1" d="M270.71,77.05a5.14,5.14,0,0,0-5.14,5.26v0a5.05,5.05,0,0,0,5.11,5.23,5.15,5.15,0,0,0,5.14-5.29A5.06,5.06,0,0,0,270.71,77.05Zm3.75,5.26v0a3.77,3.77,0,0,1-3.75,4,3.86,3.86,0,0,1-3.79-4,3.79,3.79,0,0,1,3.76-4A3.85,3.85,0,0,1,274.46,82.31Z" transform="translate(-13.58 -16.19)"/><polygon class="cls-1" points="112.34 13.86 109.25 13.86 109.25 47.85 131.94 47.85 131.94 44.95 112.34 44.95 112.34 13.86"/><path class="cls-1" d="M192.38,64,176.63,30l-.08-.18h-2.78L157.94,64h3.26l4.24-9.35h19.3L189,64Zm-9-12.2H166.77l8.34-18.27Z" transform="translate(-13.58 -16.19)"/><polygon class="cls-1" points="219.33 13.86 216.03 13.86 203.12 44.09 190.34 14.04 190.26 13.86 186.82 13.86 201.78 48.09 204.37 48.09 219.33 13.86"/><path class="cls-1" d="M272,64h3.39L259.62,30l-.09-.18h-2.77L240.93,64h3.25l4.24-9.35h19.3Zm-5.57-12.2H249.75l8.35-18.27Z" transform="translate(-13.58 -16.19)"/><circle class="cls-2" cx="56.08" cy="58.69" r="42.49" transform="translate(-33.18 71.85) rotate(-67.5)"/><path class="cls-3" d="M56.08,88.25a29.61,29.61,0,0,1-3.29,1.63A27.44,27.44,0,0,1,42.29,92a27.68,27.68,0,0,0,13.79,7.49A27.68,27.68,0,0,0,69.87,92a27.4,27.4,0,0,1-10.5-2.1A29.61,29.61,0,0,1,56.08,88.25Z" transform="translate(-13.58 -16.19)"/><path class="cls-3" d="M77,79.59a28.46,28.46,0,0,1-1.17,3.48A27.71,27.71,0,0,1,69.87,92a27.51,27.51,0,0,0,15-4.46,27.6,27.6,0,0,0,4.46-15A27.55,27.55,0,0,1,77,79.59Z" transform="translate(-13.58 -16.19)"/><path class="cls-3" d="M35.18,79.59a28.46,28.46,0,0,1-3.48-1.17,27.71,27.71,0,0,1-8.91-5.94,27.51,27.51,0,0,0,4.46,15,27.51,27.51,0,0,0,15,4.46,27.55,27.55,0,0,1-5.94-8.91A28.46,28.46,0,0,1,35.18,79.59Z" transform="translate(-13.58 -16.19)"/><path class="cls-3" d="M26.52,58.69a29.61,29.61,0,0,1-1.63-3.29,27.4,27.4,0,0,1-2.1-10.5A27.68,27.68,0,0,0,15.3,58.69a27.68,27.68,0,0,0,7.49,13.79A27.44,27.44,0,0,1,24.89,62,29.61,29.61,0,0,1,26.52,58.69Z" transform="translate(-13.58 -16.19)"/><path class="cls-3" d="M35.18,37.79a28.46,28.46,0,0,1,1.17-3.48,27.55,27.55,0,0,1,5.94-8.91,27.65,27.65,0,0,0-15,4.46,27.59,27.59,0,0,0-4.45,15A27.71,27.71,0,0,1,31.7,39,28.46,28.46,0,0,1,35.18,37.79Z" transform="translate(-13.58 -16.19)"/><path class="cls-3" d="M56.08,29.13a29.61,29.61,0,0,1,3.29-1.63,27.59,27.59,0,0,1,10.5-2.1,27.68,27.68,0,0,0-13.79-7.49A27.68,27.68,0,0,0,42.29,25.4a27.63,27.63,0,0,1,10.5,2.1A29.61,29.61,0,0,1,56.08,29.13Z" transform="translate(-13.58 -16.19)"/><path class="cls-3" d="M69.87,25.4A27.55,27.55,0,0,1,77,37.79,27.55,27.55,0,0,1,89.37,44.9a27.6,27.6,0,0,0-4.46-15A27.6,27.6,0,0,0,69.87,25.4Z" transform="translate(-13.58 -16.19)"/><path class="cls-3" d="M85.64,58.69A29.61,29.61,0,0,1,87.27,62a27.63,27.63,0,0,1,2.1,10.5,27.68,27.68,0,0,0,7.49-13.79A27.68,27.68,0,0,0,89.37,44.9a27.59,27.59,0,0,1-2.1,10.5A29.61,29.61,0,0,1,85.64,58.69Z" transform="translate(-13.58 -16.19)"/><path class="cls-4" d="M69.87,92a27.68,27.68,0,0,1-13.79,7.49,27.49,27.49,0,0,0,14.27-.76c.66-.24,1.33-.49,2-.76s1.31-.57,2-.87a27.39,27.39,0,0,0,10.62-9.56A27.51,27.51,0,0,1,69.87,92Z" transform="translate(-13.58 -16.19)"/><path class="cls-4" d="M42.29,92a27.51,27.51,0,0,1-15-4.46,27.32,27.32,0,0,0,10.62,9.56q1,.45,2,.87c.66.27,1.33.52,2,.76a27.49,27.49,0,0,0,14.27.76A27.68,27.68,0,0,1,42.29,92Z" transform="translate(-13.58 -16.19)"/><path class="cls-4" d="M22.79,72.48A27.68,27.68,0,0,1,15.3,58.69,27.48,27.48,0,0,0,16.06,73c.24.66.49,1.33.76,2s.57,1.31.87,2a27.32,27.32,0,0,0,9.56,10.62A27.51,27.51,0,0,1,22.79,72.48Z" transform="translate(-13.58 -16.19)"/><path class="cls-4" d="M22.79,44.9a27.59,27.59,0,0,1,4.45-15,27.45,27.45,0,0,0-9.55,10.62q-.45,1-.87,2c-.27.66-.52,1.33-.76,2a27.49,27.49,0,0,0-.76,14.27A27.68,27.68,0,0,1,22.79,44.9Z" transform="translate(-13.58 -16.19)"/><path class="cls-4" d="M42.29,25.4a27.68,27.68,0,0,1,13.79-7.49,27.48,27.48,0,0,0-14.27.76c-.66.24-1.33.49-2,.77s-1.31.56-2,.86a27.42,27.42,0,0,0-10.63,9.56A27.65,27.65,0,0,1,42.29,25.4Z" transform="translate(-13.58 -16.19)"/><path class="cls-4" d="M69.87,25.4a27.6,27.6,0,0,1,15,4.46A27.39,27.39,0,0,0,74.29,20.3c-.64-.3-1.29-.59-2-.86s-1.33-.53-2-.77a27.49,27.49,0,0,0-14.27-.76A27.68,27.68,0,0,1,69.87,25.4Z" transform="translate(-13.58 -16.19)"/><path class="cls-4" d="M89.37,44.9a27.68,27.68,0,0,1,7.49,13.79,27.49,27.49,0,0,0-.76-14.27c-.24-.66-.49-1.33-.77-2s-.56-1.31-.86-2a27.39,27.39,0,0,0-9.56-10.62A27.6,27.6,0,0,1,89.37,44.9Z" transform="translate(-13.58 -16.19)"/><path class="cls-4" d="M89.37,72.48a27.6,27.6,0,0,1-4.46,15A27.32,27.32,0,0,0,94.47,76.9c.3-.64.59-1.29.86-2s.53-1.33.77-2a27.49,27.49,0,0,0,.76-14.27A27.68,27.68,0,0,1,89.37,72.48Z" transform="translate(-13.58 -16.19)"/><path class="cls-4" d="M41.81,98.71c.68.24,1.35.46,2,.67l.6.17c.46.13.92.26,1.37.37l.94.22,1.07.23,1.08.2c.32.05.63.11,1,.15s.76.11,1.14.15l.92.11c.37,0,.75.06,1.13.09s.63.05,1,.06l1.07,0,1,0,1,0,1.08,0c.32,0,.63,0,.95-.06l1.14-.09.91-.11q.57-.06,1.14-.15c.32,0,.63-.1.94-.15l1.09-.2,1.07-.23.94-.22c.45-.11.9-.24,1.35-.37l.63-.17c.67-.21,1.35-.43,2-.67a27.49,27.49,0,0,1-14.27.76A27.49,27.49,0,0,1,41.81,98.71Z" transform="translate(-13.58 -16.19)"/><path class="cls-4" d="M96.1,73c.24-.68.46-1.35.67-2,.06-.21.11-.42.17-.62.13-.45.26-.91.37-1.36s.15-.63.22-.94.16-.71.23-1.07.13-.72.2-1.09.11-.62.15-.94.11-.76.15-1.14.08-.61.11-.91.06-.76.09-1.14.05-.63.06-.95,0-.72,0-1.08,0-.67,0-1,0-.67,0-1,0-.72,0-1.08,0-.63-.06-1,0-.76-.09-1.13-.07-.61-.11-.92-.09-.76-.15-1.14-.1-.63-.15-1-.13-.72-.2-1.08-.15-.72-.23-1.07-.14-.63-.22-.94-.24-.9-.37-1.36c-.06-.2-.11-.41-.17-.62-.21-.67-.43-1.34-.67-2a27.49,27.49,0,0,1,.76,14.27A27.49,27.49,0,0,1,96.1,73Z" transform="translate(-13.58 -16.19)"/><path class="cls-4" d="M74.29,97.08c.65-.31,1.28-.63,1.9-1l.56-.31c.41-.23.82-.46,1.23-.71l.81-.5.92-.59.91-.64.78-.55.91-.7.72-.58.87-.73.71-.63c.27-.24.53-.49.79-.74l.73-.7c.24-.24.47-.48.7-.73s.5-.52.74-.79.42-.47.62-.71l.74-.87c.2-.24.38-.48.57-.72s.48-.61.71-.92.37-.51.55-.77.43-.6.64-.91.39-.61.58-.92.35-.54.51-.81.48-.82.7-1.23c.11-.19.22-.37.32-.56.33-.62.65-1.25,1-1.9a27.32,27.32,0,0,1-9.56,10.62A27.39,27.39,0,0,1,74.29,97.08Z" transform="translate(-13.58 -16.19)"/><path class="cls-4" d="M16.06,44.42c-.24.68-.46,1.35-.67,2-.06.2-.11.4-.17.6-.13.46-.26.92-.37,1.37s-.15.63-.22.94-.16.71-.23,1.07-.13.72-.2,1.08-.11.63-.15,1-.11.76-.15,1.14-.08.61-.11.92-.06.75-.09,1.13,0,.63-.06,1,0,.72,0,1.07,0,.68,0,1,0,.67,0,1,0,.72,0,1.09,0,.62.06.93.05.77.09,1.15.07.6.11.9.09.77.15,1.15.1.63.15.94.13.73.2,1.1.15.7.23,1.06.14.62.22.94.24.9.37,1.35c.06.21.11.42.17.63.21.67.43,1.35.67,2a27.48,27.48,0,0,1-.76-14.27A27.49,27.49,0,0,1,16.06,44.42Z" transform="translate(-13.58 -16.19)"/><path class="cls-4" d="M37.87,20.3c-.65.31-1.28.63-1.9,1l-.56.31c-.41.23-.82.46-1.23.71l-.81.5-.92.59-.91.64-.78.55-.91.7-.72.58-.87.73-.71.63c-.27.24-.53.49-.79.74l-.73.7c-.24.24-.47.48-.7.73s-.5.52-.74.79l-.63.71-.74.87-.56.72c-.24.3-.48.61-.71.92s-.37.51-.55.77-.43.6-.64.91-.39.61-.59.92-.34.54-.5.81-.48.82-.71,1.23l-.31.56c-.33.62-.65,1.25-1,1.9a27.45,27.45,0,0,1,9.55-10.62A27.42,27.42,0,0,1,37.87,20.3Z" transform="translate(-13.58 -16.19)"/><path class="cls-4" d="M70.35,18.67c-.68-.24-1.35-.46-2-.67l-.61-.17c-.45-.13-.91-.26-1.36-.37l-.94-.22L64.34,17l-1.09-.2c-.31,0-.62-.11-.94-.15s-.76-.11-1.15-.15l-.9-.11-1.14-.09c-.32,0-.63,0-.95-.06l-1.08,0c-.34,0-.67,0-1,0h-1l-1.08,0c-.32,0-.63,0-1,.06l-1.14.09-.91.11q-.57.06-1.14.15c-.32,0-.63.1-.94.15l-1.09.2-1.07.23-.94.22c-.45.11-.9.24-1.36.37l-.62.17c-.67.21-1.35.43-2,.67a27.48,27.48,0,0,1,14.27-.76A27.49,27.49,0,0,1,70.35,18.67Z" transform="translate(-13.58 -16.19)"/><path class="cls-4" d="M17.69,76.9c.31.65.63,1.28,1,1.9.1.19.21.38.32.56.22.41.45.83.7,1.23s.33.54.51.81.38.62.58.92.42.61.64.91L22,84l.71.91.56.72.74.87.63.71c.24.27.49.53.74.79s.46.49.7.73l.73.7c.26.25.52.5.79.74l.71.63.87.74.72.56.91.71.78.56.91.63.92.59.81.5c.41.25.82.48,1.23.71l.56.31c.62.33,1.25.65,1.9,1a27.32,27.32,0,0,1-10.62-9.56A27.32,27.32,0,0,1,17.69,76.9Z" transform="translate(-13.58 -16.19)"/><path class="cls-4" d="M78.79,22.79,78,22.27c-.4-.24-.81-.47-1.22-.69l-.56-.32c-.62-.33-1.25-.65-1.9-1a27.39,27.39,0,0,1,10.62,9.56,27.39,27.39,0,0,1,9.56,10.62c-.31-.65-.63-1.28-1-1.9-.1-.19-.21-.37-.31-.55-.23-.42-.46-.83-.71-1.24s-.33-.54-.5-.8-.39-.63-.6-.93-.41-.6-.62-.9l-.56-.79-.7-.91-.58-.72-.73-.87-.63-.71c-.24-.27-.49-.53-.74-.79s-.46-.49-.7-.73l-.73-.7c-.26-.25-.52-.5-.79-.74l-.71-.62L83,25.83l-.72-.56-.92-.71c-.25-.19-.51-.37-.77-.55l-.91-.64C79.41,23.17,79.1,23,78.79,22.79Z" transform="translate(-13.58 -16.19)"/><path class="cls-5" d="M44.45,53.87a28.21,28.21,0,0,1,2.35-4.46A28.31,28.31,0,0,0,42.35,53,27.52,27.52,0,0,0,43,58.69,28.77,28.77,0,0,1,44.45,53.87Z" transform="translate(-13.58 -16.19)"/><path class="cls-5" d="M44.45,63.51A28.77,28.77,0,0,1,43,58.69a27.52,27.52,0,0,0-.61,5.69A28.31,28.31,0,0,0,46.8,68,28.21,28.21,0,0,1,44.45,63.51Z" transform="translate(-13.58 -16.19)"/><path class="cls-5" d="M51.26,70.32A28.21,28.21,0,0,1,46.8,68a28.31,28.31,0,0,0,3.59,4.45,27.52,27.52,0,0,0,5.69-.61A28.77,28.77,0,0,1,51.26,70.32Z" transform="translate(-13.58 -16.19)"/><path class="cls-5" d="M60.9,70.32a28.77,28.77,0,0,1-4.82,1.49,27.52,27.52,0,0,0,5.69.61A28.31,28.31,0,0,0,65.36,68,28.21,28.21,0,0,1,60.9,70.32Z" transform="translate(-13.58 -16.19)"/><path class="cls-5" d="M67.71,63.51A28.21,28.21,0,0,1,65.36,68a28.31,28.31,0,0,0,4.45-3.59,28.22,28.22,0,0,0-.61-5.69A28.77,28.77,0,0,1,67.71,63.51Z" transform="translate(-13.58 -16.19)"/><path class="cls-5" d="M67.71,53.87a28.77,28.77,0,0,1,1.49,4.82A28.22,28.22,0,0,0,69.81,53a28.31,28.31,0,0,0-4.45-3.59A28.21,28.21,0,0,1,67.71,53.87Z" transform="translate(-13.58 -16.19)"/><path class="cls-5" d="M60.9,47.06a28.21,28.21,0,0,1,4.46,2.35A28.31,28.31,0,0,0,61.77,45a28.22,28.22,0,0,0-5.69.61A28.77,28.77,0,0,1,60.9,47.06Z" transform="translate(-13.58 -16.19)"/><path class="cls-5" d="M51.26,47.06a28.77,28.77,0,0,1,4.82-1.49A28.22,28.22,0,0,0,50.39,45a28.31,28.31,0,0,0-3.59,4.45A28.21,28.21,0,0,1,51.26,47.06Z" transform="translate(-13.58 -16.19)"/><path class="cls-6" d="M42.35,53A27.89,27.89,0,0,0,38,58.69a27.89,27.89,0,0,0,4.37,5.69A27.52,27.52,0,0,1,43,58.69,27.52,27.52,0,0,1,42.35,53Z" transform="translate(-13.58 -16.19)"/><path class="cls-6" d="M42.35,64.38a27.86,27.86,0,0,0,.93,7.11,27.86,27.86,0,0,0,7.11.93A28.31,28.31,0,0,1,46.8,68,28.31,28.31,0,0,1,42.35,64.38Z" transform="translate(-13.58 -16.19)"/><path class="cls-6" d="M50.39,72.42a27.89,27.89,0,0,0,5.69,4.37,27.89,27.89,0,0,0,5.69-4.37,27.52,27.52,0,0,1-5.69-.61A27.52,27.52,0,0,1,50.39,72.42Z" transform="translate(-13.58 -16.19)"/><path class="cls-6" d="M61.77,72.42a27.86,27.86,0,0,0,7.11-.93,27.86,27.86,0,0,0,.93-7.11A28.31,28.31,0,0,1,65.36,68,28.31,28.31,0,0,1,61.77,72.42Z" transform="translate(-13.58 -16.19)"/><path class="cls-6" d="M69.81,64.38a27.89,27.89,0,0,0,4.37-5.69A27.89,27.89,0,0,0,69.81,53a28.22,28.22,0,0,1-.61,5.69A28.22,28.22,0,0,1,69.81,64.38Z" transform="translate(-13.58 -16.19)"/><path class="cls-6" d="M65.36,49.41A28.31,28.31,0,0,1,69.81,53a27.86,27.86,0,0,0-.93-7.11A27.86,27.86,0,0,0,61.77,45,28.31,28.31,0,0,1,65.36,49.41Z" transform="translate(-13.58 -16.19)"/><path class="cls-6" d="M50.39,45a27.86,27.86,0,0,0-7.11.93A27.86,27.86,0,0,0,42.35,53a28.31,28.31,0,0,1,4.45-3.59A28.31,28.31,0,0,1,50.39,45Z" transform="translate(-13.58 -16.19)"/><path class="cls-6" d="M61.77,45a27.89,27.89,0,0,0-5.69-4.37A27.89,27.89,0,0,0,50.39,45a28.22,28.22,0,0,1,5.69.61A28.22,28.22,0,0,1,61.77,45Z" transform="translate(-13.58 -16.19)"/><path class="cls-7" d="M43.28,71.49a27.86,27.86,0,0,1-.93-7.11A27.89,27.89,0,0,1,38,58.69a27.7,27.7,0,0,0-3.27,8.85A27.83,27.83,0,0,0,43.28,71.49Z" transform="translate(-13.58 -16.19)"/><path class="cls-7" d="M56.08,76.79a27.89,27.89,0,0,1-5.69-4.37,27.86,27.86,0,0,1-7.11-.93,27.83,27.83,0,0,0,3.95,8.57A27.7,27.7,0,0,0,56.08,76.79Z" transform="translate(-13.58 -16.19)"/><path class="cls-7" d="M68.88,71.49a27.86,27.86,0,0,1-7.11.93,27.89,27.89,0,0,1-5.69,4.37,27.7,27.7,0,0,0,8.85,3.27A27.83,27.83,0,0,0,68.88,71.49Z" transform="translate(-13.58 -16.19)"/><path class="cls-7" d="M74.18,58.69a27.89,27.89,0,0,1-4.37,5.69,27.86,27.86,0,0,1-.93,7.11,27.83,27.83,0,0,0,8.57-3.95A27.94,27.94,0,0,0,74.18,58.69Z" transform="translate(-13.58 -16.19)"/><path class="cls-7" d="M68.88,45.89A27.86,27.86,0,0,1,69.81,53a27.89,27.89,0,0,1,4.37,5.69,27.94,27.94,0,0,0,3.27-8.85A27.83,27.83,0,0,0,68.88,45.89Z" transform="translate(-13.58 -16.19)"/><path class="cls-7" d="M38,58.69A27.89,27.89,0,0,1,42.35,53a27.86,27.86,0,0,1,.93-7.11,27.73,27.73,0,0,0-8.57,4A27.7,27.7,0,0,0,38,58.69Z" transform="translate(-13.58 -16.19)"/><path class="cls-7" d="M43.28,45.89A27.86,27.86,0,0,1,50.39,45a27.89,27.89,0,0,1,5.69-4.37,27.94,27.94,0,0,0-8.85-3.27A27.83,27.83,0,0,0,43.28,45.89Z" transform="translate(-13.58 -16.19)"/><path class="cls-7" d="M56.08,40.59A27.89,27.89,0,0,1,61.77,45a27.86,27.86,0,0,1,7.11.93,27.83,27.83,0,0,0-3.95-8.57A27.94,27.94,0,0,0,56.08,40.59Z" transform="translate(-13.58 -16.19)"/><path class="cls-8" d="M43.28,71.49a27.83,27.83,0,0,1-8.57-3.95,27.5,27.5,0,0,0,.47,12,27.5,27.5,0,0,0,12,.47A27.83,27.83,0,0,1,43.28,71.49Z" transform="translate(-13.58 -16.19)"/><path class="cls-8" d="M56.08,76.79a27.7,27.7,0,0,1-8.85,3.27,27.4,27.4,0,0,0,8.85,8.19,27.4,27.4,0,0,0,8.85-8.19A27.7,27.7,0,0,1,56.08,76.79Z" transform="translate(-13.58 -16.19)"/><path class="cls-8" d="M68.88,71.49a27.83,27.83,0,0,1-3.95,8.57,27.5,27.5,0,0,0,12-.47,27.5,27.5,0,0,0,.47-12A27.83,27.83,0,0,1,68.88,71.49Z" transform="translate(-13.58 -16.19)"/><path class="cls-8" d="M74.18,58.69a27.94,27.94,0,0,1,3.27,8.85,27.4,27.4,0,0,0,8.19-8.85,27.4,27.4,0,0,0-8.19-8.85A27.94,27.94,0,0,1,74.18,58.69Z" transform="translate(-13.58 -16.19)"/><path class="cls-8" d="M38,58.69a27.7,27.7,0,0,1-3.27-8.85,27.4,27.4,0,0,0-8.19,8.85,27.4,27.4,0,0,0,8.19,8.85A27.7,27.7,0,0,1,38,58.69Z" transform="translate(-13.58 -16.19)"/><path class="cls-8" d="M43.28,45.89a27.83,27.83,0,0,1,3.95-8.57,27.5,27.5,0,0,0-12,.47,27.5,27.5,0,0,0-.47,12.05A27.73,27.73,0,0,1,43.28,45.89Z" transform="translate(-13.58 -16.19)"/><path class="cls-8" d="M56.08,40.59a27.94,27.94,0,0,1,8.85-3.27,27.4,27.4,0,0,0-8.85-8.19,27.4,27.4,0,0,0-8.85,8.19A27.94,27.94,0,0,1,56.08,40.59Z" transform="translate(-13.58 -16.19)"/><path class="cls-8" d="M68.88,45.89a27.83,27.83,0,0,1,8.57,4A27.5,27.5,0,0,0,77,37.79a27.5,27.5,0,0,0-12-.47A27.83,27.83,0,0,1,68.88,45.89Z" transform="translate(-13.58 -16.19)"/><path class="cls-9" d="M56.08,88.25a27.4,27.4,0,0,1-8.85-8.19,27.5,27.5,0,0,1-12-.47,28.46,28.46,0,0,0,1.17,3.48A27.55,27.55,0,0,0,42.29,92a27.44,27.44,0,0,0,10.5-2.1A29.61,29.61,0,0,0,56.08,88.25Z" transform="translate(-13.58 -16.19)"/><path class="cls-9" d="M77,79.59a27.5,27.5,0,0,1-12,.47,27.4,27.4,0,0,1-8.85,8.19,29.61,29.61,0,0,0,3.29,1.63A27.4,27.4,0,0,0,69.87,92a27.71,27.71,0,0,0,5.94-8.91A28.46,28.46,0,0,0,77,79.59Z" transform="translate(-13.58 -16.19)"/><path class="cls-9" d="M85.64,58.69a27.4,27.4,0,0,1-8.19,8.85,27.5,27.5,0,0,1-.47,12,27.55,27.55,0,0,0,12.39-7.11A27.63,27.63,0,0,0,87.27,62,29.61,29.61,0,0,0,85.64,58.69Z" transform="translate(-13.58 -16.19)"/><path class="cls-9" d="M35.18,79.59a27.5,27.5,0,0,1-.47-12,27.4,27.4,0,0,1-8.19-8.85A29.61,29.61,0,0,0,24.89,62a27.44,27.44,0,0,0-2.1,10.5,27.71,27.71,0,0,0,8.91,5.94A28.46,28.46,0,0,0,35.18,79.59Z" transform="translate(-13.58 -16.19)"/><path class="cls-9" d="M26.52,58.69a27.4,27.4,0,0,1,8.19-8.85,27.5,27.5,0,0,1,.47-12.05A28.46,28.46,0,0,0,31.7,39a27.71,27.71,0,0,0-8.91,5.94,27.4,27.4,0,0,0,2.1,10.5A29.61,29.61,0,0,0,26.52,58.69Z" transform="translate(-13.58 -16.19)"/><path class="cls-9" d="M35.18,37.79a27.5,27.5,0,0,1,12-.47,27.4,27.4,0,0,1,8.85-8.19,29.61,29.61,0,0,0-3.29-1.63,27.63,27.63,0,0,0-10.5-2.1,27.55,27.55,0,0,0-5.94,8.91A28.46,28.46,0,0,0,35.18,37.79Z" transform="translate(-13.58 -16.19)"/><path class="cls-9" d="M56.08,29.13a27.4,27.4,0,0,1,8.85,8.19,27.5,27.5,0,0,1,12,.47A27.55,27.55,0,0,0,69.87,25.4a27.59,27.59,0,0,0-10.5,2.1A29.61,29.61,0,0,0,56.08,29.13Z" transform="translate(-13.58 -16.19)"/><path class="cls-9" d="M77,37.79a27.5,27.5,0,0,1,.47,12.05,27.4,27.4,0,0,1,8.19,8.85,29.61,29.61,0,0,0,1.63-3.29,27.59,27.59,0,0,0,2.1-10.5A27.55,27.55,0,0,0,77,37.79Z" transform="translate(-13.58 -16.19)"/></g></svg>