<svg xmlns="http://www.w3.org/2000/svg" width="220.33" height="28.35" viewBox="0 0 220.33 28.35"><path d="M0,0H220.33V28.35H0Z" fill="#fff"/><path d="M.71.71H27.47V27.63H.71Zm27.47,0H54.94V27.63H28.18Zm27.47,0H82.41V27.63H55.65Zm27.47,0h26.77V27.63H83.12Zm27.48,0h26.76V27.63H110.6Zm27.47,0h26.76V27.63H138.07Zm27.47,0H192.3V27.63H165.54Zm27.47,0h26.6V27.63h-26.6Z" fill="#2d4486"/><path d="M49.72,17.09a.41.41,0,0,1,.42.42v1.61a.41.41,0,0,1-.42.42H42a.41.41,0,0,1-.42-.42V17.51a.41.41,0,0,1,.42-.42h1.82a.4.4,0,0,0,.42-.42V15.61a.41.41,0,0,0-.42-.42h-1.8a1.668,1.668,0,0,0-.57.08,1,1,0,0,0-.16.52,15.59,15.59,0,0,1-1.22,3.66c0,.07-.08.12-.05.2s.05.09.12.13c1.2.71,2,.93,5.66.93,2.76,0,3.91,0,4.81-.07a.7.7,0,0,1,.48.1.36.36,0,0,1,.12.34l-.56,1.64a1.48,1.48,0,0,1-.25.5,1.31,1.31,0,0,1-.54.07h-6a9.69,9.69,0,0,1-5.13-1.39c-.06,0-.08-.07-.13-.06a.35.35,0,0,0-.13.08,7.91,7.91,0,0,1-1.81,1.48,1,1,0,0,1-.56.18.8.8,0,0,1-.49-.25c-.41-.36-1-.91-1.32-1.15-.06-.05-.05-.06-.1,0s-.06,0-.07.09c-.15.39-.2.53-.32.79a.69.69,0,0,1-.26.35,1.054,1.054,0,0,1-.51,0l-1.85-.61s-.28-.1-.33-.24a.66.66,0,0,1,.09-.51,18.76,18.76,0,0,0,1.41-8.39V6.28a.41.41,0,0,1,.42-.42h6.38a.42.42,0,0,0,.43-.42V4.65A.41.41,0,0,1,40,4.23h2.53a.42.42,0,0,1,.42.43v.78a.41.41,0,0,0,.42.42h7a.41.41,0,0,1,.42.42V7.93a.41.41,0,0,1-.42.42H49.4c-.25,0-.3.13-.14.32l1,1.17s.18.19.17.34,0,.14-.33.27c-.53.18-1.53.51-2.62.81a.37.37,0,0,0-.16.07.25.25,0,0,0-.09.18v.74a.41.41,0,0,0,.42.43H50.5a.41.41,0,0,1,.42.42v1.66a.41.41,0,0,1-.42.43H47.67a.41.41,0,0,0-.42.42v1.06a.4.4,0,0,0,.42.42Zm-5.45-5.2a.19.19,0,0,0-.05-.13h-.16c-1.38.18-2,.23-2.37.24a.76.76,0,0,1-.44-.06.51.51,0,0,1-.19-.23l-.52-1.37s-.12-.34-.06-.46.25-.13.46-.13a21.89,21.89,0,0,0,7.72-1.37h-13a.4.4,0,0,0-.42.42v6.77a33.679,33.679,0,0,0,1.3-3.73.11.11,0,0,0,0-.11H36a.41.41,0,0,1-.43-.42V9.79A.41.41,0,0,1,36,9.36h3.6s.45,0,.54.17,0,.41-.07.71c-.36,1.18-.82,2.41-1,3v.15a.08.08,0,0,0,.11.05H40a.38.38,0,0,0,.42-.36.38.38,0,0,1,.42-.36h3a.41.41,0,0,0,.42-.43Zm-9,5.16,1.38-.65a.58.58,0,0,1,.36,0,.35.35,0,0,1,.25.22,8.469,8.469,0,0,0,.55,1c0,.05.07.08.1.08s.07,0,.09-.1a4.28,4.28,0,0,0,.55-1.6v-.18h-.27a.22.22,0,0,0-.16.07A.79.79,0,0,0,38,16c0,.12-.11.19-.35.16l-2.42-.37a6.2,6.2,0,0,1-.06,1.17v.13l.14-.04Zm-.23.8a18.59,18.59,0,0,1-.69,3.49v.16a.334.334,0,0,0,.17-.05,7.5,7.5,0,0,0,1.76-1.4c0-.05.08-.09.08-.14s0-.08-.08-.14a9.56,9.56,0,0,1-1.14-1.91c0-.06,0-.13-.08-.13s0,.06,0,.12m31.19,1.8V21.7c0,1.39-.79,2-3.44,2.1a.57.57,0,0,1-.32-.05.71.71,0,0,1-.17-.29l-.5-1.64s-.09-.3,0-.4a.355.355,0,0,1,.35-.17h.91c.29,0,.38-.17.38-.51V19.56c0-.05-.15,0-.24,0-.85,0-1.71.05-2.51,0h-.32c-.33,0-.29,0-.4-.11a.6.6,0,0,1-.1-.29l-.14-1.58a.7.7,0,0,1,.09-.32.43.43,0,0,1,.38-.17h3.02a.28.28,0,0,0,.19-.06l.06-.18v-.7a.34.34,0,0,1,.42-.35h.23a.17.17,0,0,0,.11,0l.08-.08a4.2,4.2,0,0,0,.44-.33c.08-.11.06-.08,0-.13a.205.205,0,0,0-.12-.05h-1a.52.52,0,0,0-.38.11,14.11,14.11,0,0,1-2.44,1.52.41.41,0,0,1-.23,0c-.11,0-.14,0-.28-.16l-1.45-1.26c-.17-.16-.11-.18-.11-.25s.11-.14.23-.2a16.094,16.094,0,0,0,1.81-1c.06,0,.12,0,.17-.14a.46.46,0,0,0,0-.22v-.43a.41.41,0,0,1,.43-.43h.87a.6.6,0,0,0,.21,0,.5.5,0,0,0,.17-.11,11.441,11.441,0,0,0,.86-.76c.09-.09.2-.15.18-.22s-.19,0-.19,0H60a.4.4,0,0,1-.42-.42V9.83A.4.4,0,0,1,60,9.41h2.26A.41.41,0,0,0,62.64,9V8.79a.41.41,0,0,0-.42-.42H60.57A.41.41,0,0,1,60.15,8V6.5a.4.4,0,0,1,.42-.42h1.65a.41.41,0,0,0,.42-.43V4.6a.41.41,0,0,1,.42-.43h2.11a.41.41,0,0,1,.43.42V5.65a.41.41,0,0,0,.42.43h.55A.4.4,0,0,1,67,6.5v.78c0,.02,0,0,.13-.18.2-.38.53-1,.83-1.59.09-.17.12-.34.3-.39a1,1,0,0,1,.53.1l1.45.56s.3.13.35.27,0,.23-.1.48c0,.09-.08.18-.11.24A16.32,16.32,0,0,1,69,9.21c0,.06-.11.12-.08.17s.1,0,.1,0h.13a.41.41,0,0,1,.43.42v.91c0,.02.07,0,.12-.11a18.84,18.84,0,0,0,1.92-6,.58.58,0,0,1,.14-.39c.11-.1.32,0,.32,0l2.2.35a.69.69,0,0,1,.37.17c.09.13.09.13,0,.61v.18c-.08.3-.46,1.47-.65,2.08,0,.15-.09.2,0,.27a.522.522,0,0,0,.28.06h4.25a.41.41,0,0,1,.43.42v1.8a.42.42,0,0,1-.43.42H78a17,17,0,0,1-2.25,7.68.83.83,0,0,0-.17.34c0,.11.13.22.22.33a14.17,14.17,0,0,0,2.48,2.35.52.52,0,0,1,.27.39,1.11,1.11,0,0,1-.21.44L77.2,23.5a.73.73,0,0,1-.32.21,1.051,1.051,0,0,1-.46-.23,18.179,18.179,0,0,1-2.49-2.36c-.07-.09-.1-.16-.23-.16s-.18.07-.28.15a11.22,11.22,0,0,1-3.94,2.25.79.79,0,0,1-.52.07c-.17-.05-.37-.33-.37-.33l-1-1.52s-.22-.3-.16-.46.22-.21.43-.27a9.2,9.2,0,0,0,4-2.2c.07-.08.16-.13.16-.24a.82.82,0,0,0-.11-.32,13.46,13.46,0,0,1-1.25-3.23c0-.07,0-.1-.07-.11s-.07,0-.11.07v.06a.123.123,0,0,1-.12.12c-.12.01-.12-.06-.17-.1-.31-.25-.53-.41-.73-.56a.32.32,0,0,0-.28-.09c-.12,0-.14.07-.22.17a22.289,22.289,0,0,1-2.11,2.24c-.11.1-.25.16-.21.26s.09,0,.25,0l2.31-.19c.19,0,.21,0,.31.07s.06.3.06.3l-.21,1.53a.68.68,0,0,1-.11.28.5.5,0,0,1-.3.11c-.46.07-1,.15-2.36.28-.09,0-.19,0-.24.08a1.367,1.367,0,0,0-.1.27Zm8.55-9.08h-2a.33.33,0,0,0-.1.12.48.48,0,0,0-.06.25,1.269,1.269,0,0,0,0,.2,12.35,12.35,0,0,0,1,4.25c.07.16.13.27.23.28s.13-.12.2-.28a14,14,0,0,0,1.05-4.54v-.29c0-.08-.32.01-.32.01Zm-8.48,2.32H68a.81.81,0,0,0,.28,0,.59.59,0,0,0,.18-.17,8.56,8.56,0,0,0,.53-.76c0-.06.06-.1,0-.15a.1.1,0,0,0-.12,0H67.44a1.11,1.11,0,0,0-.33,0,.66.66,0,0,0-.21.2c-.21.25-.43.49-.66.73-.06.07-.14.14-.11.18s.19-.03.19-.03ZM65.78,9.4c.08,0,.08-.06.11-.09l.58-.73c.09-.1.12-.11.1-.17s-.17,0-.17,0H66a.4.4,0,0,0-.42.42V9a.53.53,0,0,0,.09.35.14.14,0,0,0,.12.08s-.1,0,0,0M90.68,21.67a.41.41,0,0,0-.42.43v1.16a.4.4,0,0,1-.42.42H87.56a.4.4,0,0,1-.42-.42V6.92a.41.41,0,0,1,.42-.43h1.16a.29.29,0,0,0,.2,0A.45.45,0,0,0,89,6.28a11.642,11.642,0,0,0,.53-1.43.91.91,0,0,1,.23-.46c.1-.08.48,0,.48,0l2.24.17s.32,0,.38.12,0,.22-.1.53a9.462,9.462,0,0,1-.5,1.09.122.122,0,0,0,0,.16.1.1,0,0,0,.13,0H94.6a.41.41,0,0,1,.42.43v5.93a.41.41,0,0,1-.42.42H90.68a.41.41,0,0,0-.42.42V14a.42.42,0,0,0,.42.43H95a.4.4,0,0,1,.42.41v7.45a.41.41,0,0,1-.42.43H92.9a.41.41,0,0,1-.42-.43V22.1a.41.41,0,0,0-.42-.43Zm11.24-12.9a.4.4,0,0,0,.42.42h3a.41.41,0,0,1,.43.43v9.2c0,1-.15,1.83-2.47,2.13a.77.77,0,0,1-.41,0c-.1-.05-.25-.46-.25-.46l-.49-1.4s0-.17-.12-.16-.06.19-.06.19V23.3a.41.41,0,0,1-.43.42H99.85a.42.42,0,0,1-.43-.42V12c0-.24,0-.32-.27-.32H98.9c-.23,0-.28,0-.28.3v8.56a.41.41,0,0,1-.42.43H96.34a.41.41,0,0,1-.42-.43V9.62a.41.41,0,0,1,.42-.43H99a.4.4,0,0,0,.42-.42V8A.4.4,0,0,0,99,7.53H95.84a.41.41,0,0,1-.43-.43V5.42A.41.41,0,0,1,95.84,5h9.81a.41.41,0,0,1,.42.43V7.1a.41.41,0,0,1-.42.43h-3.31a.4.4,0,0,0-.42.42ZM92.06,19.16a.41.41,0,0,0,.42-.42V17.37a.41.41,0,0,0-.42-.43H90.68a.41.41,0,0,0-.42.43v1.37a.41.41,0,0,0,.42.42Zm-1.8-8.57a.41.41,0,0,0,.42.42h1.08a.41.41,0,0,0,.43-.42V9.22a.41.41,0,0,0-.43-.43H90.68a.41.41,0,0,0-.42.43Zm11.66,6.69v.5c0,.06.14,0,.27,0h.16c.57,0,.59-.36.59-.66V12c0-.25-.06-.3-.31-.3h-.47c-.24,0-.29.06-.29.3v5.33m19.29-8.02a7.53,7.53,0,0,0-3.51,5.59,3.72,3.72,0,0,0,.89,2.47.72.72,0,0,0,.38.23c.42,0,.81-.88,1-1.41a18.74,18.74,0,0,0,1.58-6.64c0-.19,0-.22-.07-.26s-.13,0-.29,0Zm4.63,13.15-1.24-1.67a.75.75,0,0,1-.12-.63c.1-.25.39-.33.6-.4a6.62,6.62,0,0,0,5-6.28,4.85,4.85,0,0,0-4.11-5h-.46c-.1,0-.13.17-.15.33V9A27.51,27.51,0,0,1,123,17.75c-.91,1.9-2.31,4.16-3.86,4.16a4.14,4.14,0,0,1-2.57-1.38,7.77,7.77,0,0,1-2.25-5.42,10.09,10.09,0,0,1,3-6.87,10.49,10.49,0,0,1,7.44-3.08,8.8,8.8,0,0,1,6.49,2.6,7.57,7.57,0,0,1,2.25,5.7,9.75,9.75,0,0,1-1.5,5.27,9.52,9.52,0,0,1-4.85,4.08,1.32,1.32,0,0,1-.8.14,1.56,1.56,0,0,1-.6-.49m24.78-11.91a.57.57,0,0,1,.83-.26h.07a31.46,31.46,0,0,1,6.44,4.28,1,1,0,0,1,.41.55.73.73,0,0,1-.19.45l-1.31,2-.09.12c-.09.13-.19.29-.39.29a.58.58,0,0,1-.43-.21A31.54,31.54,0,0,0,150,13.69c-.11-.06-.12-.06-.14,0a.12.12,0,0,0,0,.09v9.16a.52.52,0,0,1-.53.54h-2.7a.5.5,0,0,1-.38-.15.53.53,0,0,1-.15-.39V5.1a.48.48,0,0,1,.15-.37.52.52,0,0,1,.38-.15l2.7.13a.475.475,0,0,1,.53.42v6.33a.21.21,0,0,0,0,.11h-.05a.38.38,0,0,0,.08-.08l.67-1m32.93-.41h1.62a2.69,2.69,0,0,1,.89.09,2.14,2.14,0,0,1,.52.27l.83.59a1.2,1.2,0,0,1,.36.38c.09.19,0,.37-.13.62l-1.19,2.36c-2.31,4.36-4.38,7-9.25,9.18a1.21,1.21,0,0,1-.72.15,1.32,1.32,0,0,1-.64-.44l-1.15-1.37c-.14-.17-.46-.59-.38-.81s.36-.33.74-.48a12.71,12.71,0,0,0,7.57-6.85V13.7a.28.28,0,0,0,0-.25c0-.06-.12-.11-.29-.1H170.65a.58.58,0,0,1-.38-.15.54.54,0,0,1-.15-.38V10.61a.52.52,0,0,1,.15-.38.54.54,0,0,1,.38-.15Zm1.24-4.92a.54.54,0,0,1,.39.15.52.52,0,0,1,.15.38V7.88a.53.53,0,0,1-.54.54h-11.4a.51.51,0,0,1-.53-.54V5.69a.56.56,0,0,1,.15-.38.54.54,0,0,1,.38-.15Zm24.82,6.56V22.88a.52.52,0,0,1-.53.53h-2.79a.51.51,0,0,1-.53-.53V13.99c0-.02-.11,0-.26.08h-.06a40.1,40.1,0,0,1-4.64,2.4,1.09,1.09,0,0,1-.69.13,1.23,1.23,0,0,1-.57-.41l-1.57-1.87c-.05-.06-.31-.39-.24-.63s.32-.33.6-.41A30.27,30.27,0,0,0,205.5,9.7a33.6,33.6,0,0,0,5.68-5.12,1.12,1.12,0,0,1,.56-.44c.26-.06.72.29.81.35l1.79,1.41a.47.47,0,0,1,.2.35.5.5,0,0,1-.13.39l-.25.28A32.7,32.7,0,0,1,210,10.83c-.26.22-.29.24-.36.4a1.19,1.19,0,0,0-.08.47M23.24,6a.4.4,0,0,1,.42.42v3.82a.41.41,0,0,1-.42.42H21a.41.41,0,0,1-.42-.42V8.92a.4.4,0,0,0-.42-.42h-12a.41.41,0,0,0-.42.42v1.39a.41.41,0,0,1-.43.42H5.17a.4.4,0,0,1-.42-.42V6.39A.4.4,0,0,1,5.17,6h7a.41.41,0,0,0,.42-.43V4.92a.43.43,0,0,1,.43-.45H15.4a.4.4,0,0,1,.42.42v.65a.41.41,0,0,0,.42.43h7" fill="#fff"/><path d="M23.28,19.79c0-.14-.18-.22-.32-.3A21.09,21.09,0,0,1,18.57,16c.38-.22,1.36-.74,1.55-.85a25.84,25.84,0,0,0,2.19-1.46c.23-.17.21-.17.22-.28s-.18-.3-.18-.3L21,11.78a.85.85,0,0,0-.36-.17.49.49,0,0,0-.37.15,14.26,14.26,0,0,1-3.16,2c-.63.27-1,.45-1.49.62a1,1,0,0,1-.61.08c-.2-.06-.34-.27-.47-.45a9.87,9.87,0,0,0-.81-1,.37.37,0,0,1-.13-.21c0-.07.06-.12.11-.16a7.77,7.77,0,0,0,1.07-.91.48.48,0,0,1,.14-.09.51.51,0,0,1,.21,0h4.38A.41.41,0,0,0,20,11.2V9.56a.41.41,0,0,0-.42-.43H8.86a.41.41,0,0,0-.42.43V11.2a.41.41,0,0,0,.42.42h1.8s.11,0,.12.05,0,.08-.14.11a18.53,18.53,0,0,1-5.52,1.4.3.3,0,0,0-.28.14c-.06.12.07.33.07.33L6.06,15.4a.9.9,0,0,0,.26.23.967.967,0,0,0,.42,0,23.56,23.56,0,0,0,4.1-1.38.16.16,0,0,1,.14,0,.11.11,0,0,1,.11.05l.19.24s.06,0,.07.12-.06.07-.11.11A17.42,17.42,0,0,1,4.77,17c-.13,0-.22,0-.26.16a.39.39,0,0,0,.09.31l1.3,1.41a.53.53,0,0,0,.16.12.48.48,0,0,0,.33,0,17.51,17.51,0,0,0,6-2.55c.06-.05.09-.1.16-.09s.07.07.1.12l.17.31a.18.18,0,0,1,0,.16c0,.06,0,.08-.1.11a19.38,19.38,0,0,1-8,3c-.15,0-.33.05-.38.19s.11.37.11.37l1.21,1.61s.12.14.21.14a1.18,1.18,0,0,0,.36-.07,24.74,24.74,0,0,0,4-1.3l.17-.07a17.42,17.42,0,0,0,2.9-1.69c.09-.07.14-.13.2-.09s0,.11,0,.21a3,3,0,0,1-.19,1.16c-.08.28-.27.55-.86.57h-1.5a.69.69,0,0,0-.52.17.47.47,0,0,0-.09.45l.49,1.57a.53.53,0,0,0,.14.26.37.37,0,0,0,.28.12h.63a5.77,5.77,0,0,0,3.18-.82,4.51,4.51,0,0,0,1.29-3.46,6.52,6.52,0,0,0-.16-1.55.662.662,0,0,1,0-.34c0-.04.14,0,.33.19A24.37,24.37,0,0,0,21,21.35a.77.77,0,0,0,.46.15c.15,0,.2-.07.36-.24.38-.43.73-.76,1.17-1.2.18-.19.17-.19.15-.35" fill="#fff"/></svg>